<svg id="No-Image--Streamline-Carbon" xmlns="http://www.w3.org/2000/svg" viewBox="0 0 128 128" height="128" width="128">
  <desc>
    No Image Streamline Icon: https://streamlinehq.com
  </desc>
  <defs></defs>
  <title>no-image</title>
  <path d="M120 13.6564 114.3436 8 8 114.3436 13.6564 120l8 -8H104a8.0108 8.0108 0 0 0 8 -8V21.6564ZM104 104H29.6564l31.1716 -31.172 9.5152 9.5148a8 8 0 0 0 11.3136 0L88 76l16 15.9892Zm0 -23.3272 -10.3432 -10.3436a8 8 0 0 0 -11.3136 0L76 76.6728l-9.508 -9.5084L104 29.6564Z" fill="#000000" stroke-width="4"></path>
  <path d="M24 88v-12l20 -19.9864 5.4932 5.4932 5.6636 -5.664 -5.5 -5.5a8 8 0 0 0 -11.3136 0L24 64.6864V24h64V16H24a8.008 8.008 0 0 0 -8 8v64Z" fill="#000000" stroke-width="4"></path>
  <path id="_Transparent_Rectangle_" d="M0 0h128v128H0Z" fill="none" stroke-width="4"></path>
</svg>